<?xml version="1.0" encoding="utf-8"?>
<!-- Generator: Adobe Illustrator 24.0.0, SVG Export Plug-In . SVG Version: 6.00 Build 0)  -->
<svg version="1.1" id="Layer_1" xmlns="http://www.w3.org/2000/svg" xmlns:xlink="http://www.w3.org/1999/xlink" x="0px" y="0px"
	 viewBox="0 0 204.3 88" style="enable-background:new 0 0 204.3 88;" xml:space="preserve">
<style type="text/css">
	.st0{enable-background:new    ;}
	.st1{fill:#fff;}
</style>
<g id="Group_6687" transform="translate(-76.669 -2694.786)">
	<g id="Group_6686" transform="translate(-107.674)">
		<g id="Group_6684">
			<g class="st0">
				<path class="st1" d="M218.3,2728.1c0,1-0.2,1.6-0.7,2c-0.5,0.4-1.2,0.7-2.1,0.8c0.2,3.3,0.3,6.5,0.4,9.7
					c0.1,3.2,0.1,6.5,0.1,9.7c0,0.5-0.1,0.9-0.3,1.2c-0.2,0.3-0.6,0.4-1.1,0.4c-0.5,0-0.9-0.1-1.4-0.2c-0.5-0.1-0.9-0.3-1.2-0.5
					c-0.4-0.2-0.7-0.5-0.9-0.9c-0.2-0.4-0.3-0.8-0.3-1.4v-9.9c0-1.2,0-2.5,0-3.7c0-1.2,0-2.5-0.1-3.7c-1.8,0.3-3.6,0.5-5.5,0.7
					c-1.8,0.2-3.6,0.3-5.5,0.4c0.1,4.5,0.2,9,0.4,13.5c0.1,0.9,0.1,1.8,0.2,2.7s0.1,1.8,0.1,2.7c0,0.4-0.1,0.7-0.3,1
					c-0.2,0.2-0.6,0.3-1,0.3c-0.3,0-0.7,0-1-0.1c-0.4-0.1-0.7-0.1-1.1-0.3c-0.3-0.1-0.7-0.3-1-0.5c-0.3-0.2-0.5-0.4-0.7-0.7
					c-0.1-0.1-0.1-0.4-0.2-1c0-0.5-0.1-1.2-0.1-2c0-0.8-0.1-1.7-0.1-2.7c0-1,0-2.1,0-3.1s0-2.1,0-3.2c0-1,0-2,0-2.9s0-1.7,0-2.3
					c0-0.7,0-1.1,0-1.4c-0.3,0-0.6-0.1-0.8-0.2c-0.2-0.1-0.3-0.4-0.3-0.7c0-0.4,0.1-0.7,0.3-1.1c0.2-0.3,0.5-0.6,0.8-0.9v-19.2
					c0-0.4,0.1-0.8,0.2-1c0.2-0.3,0.5-0.4,0.9-0.4c0.7,0,1.3,0.1,1.7,0.3c0.4,0.2,0.8,0.5,1,0.9c0.2,0.4,0.4,0.8,0.4,1.3
					c0.1,0.5,0.1,1.1,0.1,1.7c0.1,2.6,0.1,5.2,0.1,7.7c0,2.6,0.1,5.2,0.1,7.7c1.8-0.2,3.6-0.3,5.4-0.5c1.8-0.2,3.6-0.4,5.4-0.8
					c-0.1-2.2-0.2-4.5-0.4-6.7c-0.2-2.2-0.4-4.4-0.7-6.7c-0.2-1.1-0.4-2.1-0.6-3.2c-0.2-1-0.3-2.1-0.3-3.2c0-0.4,0.1-0.6,0.4-0.7
					c0.3-0.1,0.6-0.2,0.9-0.2c0.5,0,1,0.1,1.5,0.3c0.5,0.2,0.9,0.5,1.3,0.9c0.2,0.3,0.4,0.9,0.6,1.7c0.2,0.9,0.4,1.9,0.6,3.1
					c0.2,1.2,0.4,2.5,0.5,3.9c0.2,1.4,0.3,2.7,0.4,4c0.1,1.3,0.2,2.4,0.3,3.5c0.1,1,0.2,1.8,0.2,2.2c0.3-0.1,0.5-0.1,0.8-0.2
					c0.3-0.1,0.5-0.1,0.8-0.1c0.5,0,0.9,0.2,1.1,0.5C218.2,2727.2,218.3,2727.6,218.3,2728.1z"/>
				<path class="st1" d="M233.4,2752.4c0,0.4-0.1,0.7-0.3,0.9c-0.2,0.2-0.5,0.2-0.9,0.2c-1,0-1.7-0.3-2.1-0.8
					c-0.4-0.5-0.8-1.2-1-2.1c-0.1-0.3-0.1-0.6-0.2-0.9c-0.1-0.3-0.1-0.6-0.2-0.9c0-0.3-0.1-0.5-0.1-0.6c0-0.1-0.1-0.3-0.1-0.6
					c-0.3,0.6-0.6,1.3-0.9,1.9c-0.4,0.7-0.8,1.3-1.3,1.8c-0.5,0.6-1,1-1.6,1.4c-0.6,0.4-1.3,0.5-2,0.5c-0.8,0-1.4-0.2-1.9-0.6
					s-0.9-0.8-1.2-1.4c-0.3-0.6-0.5-1.2-0.6-1.9c-0.1-0.7-0.2-1.3-0.2-1.9c0-1.4,0.1-3,0.4-4.7c0.3-1.7,0.7-3.4,1.2-5
					c0.5-1.7,1.1-3.3,1.8-4.9c0.7-1.6,1.4-2.9,2.2-4.1v0l0.2-0.3c0.2-0.3,0.5-0.7,0.8-1c0.3-0.4,0.7-0.6,1.1-0.6
					c0.4,0,0.8,0.2,1,0.5c0.3,0.3,0.5,0.7,0.6,1.1c0.5,0.1,1,0.2,1.3,0.4c0.3,0.2,0.6,0.4,0.8,0.6c0.2,0.2,0.3,0.5,0.4,0.8
					c0.1,0.3,0.1,0.6,0.1,1c0,0.1,0,0.3,0,0.5c0,0.2,0,0.3,0,0.5c0,0.2,0,0.4,0,0.6c0,0.2,0,0.4,0,0.6c0,0.2,0,0.5,0.1,0.8
					c0.1,0.3,0.2,0.7,0.2,1l0.2,1.2c0.1,0.6,0.2,1.3,0.3,2.1c0.1,0.8,0.2,1.6,0.3,2.3c0.1,0.8,0.2,1.6,0.3,2.3
					c0.1,0.8,0.2,1.4,0.3,2.1l0.8,4.7l0.1,0.5c0,0.3,0.1,0.5,0.1,0.8C233.4,2751.8,233.4,2752.1,233.4,2752.4z M227.9,2723.2
					c0,0.2-0.1,0.4-0.2,0.6c-0.1,0.2-0.3,0.4-0.5,0.5c-0.2,0.1-0.4,0.3-0.6,0.3c-0.2,0.1-0.4,0.1-0.6,0.1c-0.3,0-0.5-0.1-0.7-0.2
					c-0.2-0.1-0.5-0.2-0.7-0.4c-0.7-0.5-1.2-0.9-1.5-1.1c-0.3-0.2-0.6-0.5-0.8-0.7c-0.2-0.2-0.5-0.4-0.8-0.7
					c-0.3-0.3-0.8-0.6-1.4-1.2c-0.2-0.2-0.4-0.3-0.6-0.5s-0.3-0.4-0.4-0.7v-0.3c0-0.2,0.1-0.5,0.2-0.7c0.1-0.3,0.3-0.5,0.5-0.7
					c0.2-0.2,0.5-0.4,0.7-0.6c0.3-0.2,0.5-0.2,0.7-0.2c0.3,0,0.6,0.1,0.9,0.4c0.3,0.2,0.5,0.5,0.8,0.7l2.7,2.7
					c0.1,0.1,0.4,0.3,0.6,0.5s0.5,0.4,0.8,0.7c0.2,0.2,0.5,0.5,0.6,0.7S227.9,2723,227.9,2723.2z M226.1,2734.1c0,0,0-0.1,0-0.2
					c0-0.1,0-0.2-0.1-0.3c-0.5,1-0.9,2.2-1.3,3.4c-0.4,1.2-0.7,2.5-0.9,3.7s-0.4,2.5-0.5,3.8c-0.1,1.3-0.2,2.4-0.2,3.6
					c0,0.1,0,0.2,0,0.3c0,0.1,0,0.2,0,0.3v0c0.5-0.8,0.9-1.8,1.3-3.1s0.7-2.6,0.9-4c0.3-1.4,0.4-2.8,0.6-4.1
					C226.1,2736.1,226.1,2735,226.1,2734.1z"/>
				<path class="st1" d="M240.7,2752.6c0,0.5-0.1,0.8-0.4,1c-0.3,0.1-0.6,0.2-1,0.2c-0.4,0-0.7,0-1.1-0.1c-0.3-0.1-0.7-0.2-1-0.3
					c-0.3-0.1-0.6-0.3-0.8-0.6c-0.2-0.3-0.4-0.6-0.5-1c-0.3-1.3-0.5-2.5-0.5-3.7c0-1.2-0.1-2.5-0.1-3.8v-3.9c0-1.8,0.1-3.6,0.2-5.5
					c0.1-1.9,0.3-3.8,0.5-5.5c0-0.1,0-0.1,0-0.2c0-0.1,0-0.1,0-0.2c0-0.2,0.1-0.5,0.1-0.8c0-0.3,0.1-0.5,0.2-0.7
					c0.1-0.2,0.2-0.4,0.4-0.6c0.2-0.1,0.4-0.2,0.7-0.2c0.3,0,0.7,0.1,1,0.2c0.3,0.1,0.6,0.3,0.8,0.5c0.2,0.2,0.4,0.5,0.6,0.8
					s0.2,0.6,0.2,1c0,0.4,0,0.8,0,1.2c0,0.4-0.1,0.8-0.1,1.2c0,0.1,0,0.2,0,0.3s0,0.2,0,0.3c0.3-0.6,0.6-1.2,1-1.9
					c0.4-0.6,0.8-1.2,1.3-1.8c0.5-0.5,1-1,1.7-1.3c0.6-0.3,1.3-0.5,2-0.5c0.6,0,1.1,0.1,1.5,0.3c0.4,0.2,0.7,0.5,1,0.8
					c0.2,0.3,0.4,0.8,0.5,1.2c0.1,0.5,0.1,1,0.1,1.5c0,0.7,0,1.4-0.1,2.2c0,0.7-0.1,1.5-0.1,2.2c-0.1,0.7-0.1,1.5-0.2,2.2
					c0,0.7-0.1,1.5-0.1,2.2c0,0.9,0,1.8,0.1,2.7c0,0.9,0.1,1.8,0.2,2.7c0.1,0.9,0.2,1.6,0.3,2.3c0.1,0.7,0.2,1.2,0.3,1.6
					c0.1,0.3,0.2,0.7,0.3,1.1c0.1,0.4,0.2,0.8,0.3,1.3c0.1,0.4,0.2,0.9,0.2,1.3c0.1,0.4,0.1,0.8,0.1,1.1c0,0.5-0.2,0.8-0.6,0.9
					c-0.4,0.1-0.7,0.2-1.1,0.2c-0.4,0-0.8,0-1.2-0.1s-0.9-0.2-1.2-0.4c-0.4-0.3-0.7-0.8-0.9-1.3c-0.1-0.6-0.2-1.1-0.3-1.7l-0.1-0.9
					c-0.1-0.5-0.1-1.2-0.3-2c-0.1-0.8-0.2-1.7-0.3-2.7c-0.1-1-0.2-2-0.2-3.1c-0.1-1.1-0.1-2.1-0.1-3.1c0-0.9,0-1.8,0.1-2.6
					c0.1-0.8,0.2-1.7,0.2-2.6c0-0.4,0.1-0.8,0.1-1.1c0-0.3,0.1-0.6,0.1-1.1c-0.4,0.7-0.8,1.5-1.3,2.4c-0.4,0.9-0.8,1.9-1.2,2.8
					c-0.4,1-0.7,1.9-1,2.9c-0.3,0.9-0.5,1.7-0.7,2.4l-0.2,0.7c-0.1,0.3-0.2,0.7-0.3,1c-0.1,0.3-0.1,0.7-0.1,1c0,0.4,0,0.8,0.1,1.3
					c0,0.5,0.1,1,0.2,1.4c0.1,0.5,0.1,1.1,0.2,1.6c0,0,0,0.2,0.1,0.4c0,0.2,0.1,0.5,0.1,0.8c0,0.3,0.1,0.7,0.1,1
					C240.7,2752,240.7,2752.4,240.7,2752.6z"/>
				<path class="st1" d="M268.9,2744.9c0,0.2-0.1,0.5-0.2,0.7c-0.1,0.3-0.3,0.6-0.4,0.9s-0.4,0.6-0.6,0.9c-0.2,0.3-0.4,0.6-0.6,0.9
					l-0.5,0.7l-0.5,0.8l-0.4,0.8c0,0.4,0.1,0.9,0.1,1.4c0,0.5,0.1,1,0.1,1.4c0.2,2.2,0.4,4.4,0.6,6.7c0.2,2.3,0.3,4.5,0.3,6.7
					c0,1.2-0.1,2.3-0.3,3.5c-0.2,1.2-0.5,2.3-1.1,3.2c-0.5,1-1.2,1.8-2.1,2.4c-0.9,0.6-2.1,0.9-3.5,0.9c-1,0-1.8-0.2-2.5-0.5
					c-0.7-0.4-1.2-0.8-1.6-1.4c-0.4-0.6-0.7-1.3-0.9-2.1c-0.2-0.8-0.3-1.6-0.3-2.5c0-1.7,0.2-3.4,0.6-5.2c0.4-1.8,0.9-3.5,1.6-5.2
					c0.6-1.7,1.4-3.4,2.2-5s1.7-3.2,2.5-4.7c0,0,0-0.1,0-0.1s0-0.1,0-0.3c-0.3,0.5-0.6,1-0.9,1.6c-0.3,0.5-0.7,1-1.2,1.4
					c-0.4,0.4-0.9,0.8-1.4,1c-0.5,0.3-1.1,0.4-1.7,0.4c-0.9,0-1.6-0.2-2.2-0.6c-0.6-0.4-1.1-1-1.4-1.6c-0.3-0.7-0.6-1.4-0.7-2.2
					c-0.1-0.8-0.2-1.5-0.2-2.2c0-0.8,0-1.6,0.1-2.4c0.1-0.8,0.2-1.5,0.3-2.3c0.2-1.2,0.5-2.5,0.8-3.9c0.3-1.4,0.7-2.8,1.2-4.1
					c0.5-1.4,1.1-2.7,1.7-3.9c0.6-1.2,1.4-2.2,2.3-3.1l0.3-0.2c0.3-0.3,0.6-0.5,1-0.8c0.4-0.3,0.7-0.4,1.1-0.4
					c0.2,0,0.4,0.1,0.6,0.2c0.2,0.1,0.3,0.3,0.5,0.5c0.1,0.2,0.2,0.4,0.3,0.7c0.1,0.2,0.1,0.5,0.1,0.7c0,0.3-0.1,0.5-0.3,0.8h0.1
					c1.3,0,2.2,0.6,2.6,1.8c0.2,0.2,0.4,0.5,0.5,0.8c0.1,0.3,0.2,0.6,0.2,1c0,0.2,0,0.4,0,0.6c0,0.2-0.1,0.4-0.1,0.6
					c0,0.2-0.1,0.4-0.1,0.5c0,0.2,0,0.3,0,0.5c0,0.5,0,1.1,0,1.8c0,0.7,0.1,1.5,0.1,2.3c0,0.8,0.1,1.5,0.1,2.3s0.1,1.4,0.1,2
					c0.1-0.2,0.3-0.4,0.5-0.5c0.2-0.1,0.4-0.2,0.7-0.2c0.2,0,0.5,0.1,0.8,0.3c0.3,0.2,0.6,0.4,0.9,0.6s0.5,0.5,0.7,0.8
					C268.8,2744.4,268.9,2744.7,268.9,2744.9z M260.2,2731.8c0-0.1,0-0.3,0-0.4c0-0.1,0-0.3,0.1-0.5l-0.2,0.3
					c-0.2,0.2-0.3,0.4-0.5,0.5c-0.1,0.2-0.3,0.3-0.4,0.5c-0.6,0.8-1,1.8-1.4,3.1c-0.4,1.3-0.8,2.6-1,4c-0.3,1.4-0.5,2.8-0.6,4.1
					c-0.1,1.4-0.2,2.5-0.2,3.5c0,0.5,0,1,0,1.5c0,0.5,0.1,1,0.3,1.4c0.3-0.3,0.5-0.7,0.7-1s0.4-0.8,0.5-1.2c0.5-1,0.9-2.2,1.2-3.6
					c0.3-1.4,0.6-2.8,0.8-4.3c0.2-1.5,0.4-2.9,0.5-4.3C260.1,2734.2,260.1,2733,260.2,2731.8z M262.6,2765.7c0-1.4,0-2.8-0.1-4
					s-0.2-2.6-0.3-4c-0.4,0.9-0.8,1.9-1.2,2.9c-0.4,1-0.7,2.1-1,3.2c-0.3,1.1-0.5,2.1-0.7,3.2c-0.2,1.1-0.3,2.1-0.3,3v0.2
					c0,0.5,0,1,0.1,1.6c0.1,0.6,0.3,1,0.6,1.4h0.3c0.4,0,0.8-0.1,1.1-0.4c0.3-0.3,0.5-0.7,0.7-1.1c0.2-0.4,0.3-0.9,0.4-1.5
					c0.1-0.6,0.2-1.1,0.2-1.7c0-0.6,0.1-1.1,0.1-1.6C262.6,2766.4,262.6,2766,262.6,2765.7z"/>
				<path class="st1" d="M284.5,2752.6c0,0.5-0.1,0.8-0.4,1c-0.3,0.1-0.6,0.2-1,0.2c-0.4,0-0.7,0-1.1-0.1c-0.3-0.1-0.7-0.2-1-0.3
					c-0.3-0.1-0.6-0.3-0.8-0.6c-0.2-0.3-0.4-0.6-0.5-1c-0.3-1.3-0.5-2.5-0.5-3.7c0-1.2-0.1-2.5-0.1-3.8v-3.9c0-1.8,0.1-3.6,0.2-5.5
					c0.1-1.9,0.3-3.8,0.5-5.5c0-0.1,0-0.1,0-0.2c0-0.1,0-0.1,0-0.2c0-0.2,0.1-0.5,0.1-0.8c0-0.3,0.1-0.5,0.2-0.7
					c0.1-0.2,0.2-0.4,0.4-0.6c0.2-0.1,0.4-0.2,0.7-0.2c0.3,0,0.7,0.1,1,0.2c0.3,0.1,0.6,0.3,0.8,0.5c0.2,0.2,0.4,0.5,0.6,0.8
					s0.2,0.6,0.2,1c0,0.4,0,0.9,0,1.3c0,0.5-0.1,0.9-0.1,1.3c0,0.3-0.1,0.5-0.1,0.7c0,0.1,0,0.4,0,0.7c0.3-0.4,0.5-0.9,0.9-1.3
					c0.3-0.5,0.7-0.9,1.1-1.2c0.4-0.3,0.8-0.6,1.3-0.9c0.5-0.2,1-0.3,1.5-0.3c0.5,0,1,0.1,1.4,0.3c0.4,0.2,0.6,0.4,0.9,0.7
					c0.2,0.3,0.4,0.7,0.4,1.1c0.1,0.4,0.1,0.9,0.1,1.3c0,0.3,0,0.6,0,0.9c0,0.3,0,0.6,0,0.8c0,0.3,0,0.5,0,0.8c0,0.3,0,0.5,0,0.8
					c0,0.5,0,1.1,0,1.6c0,0.5,0.1,1,0.1,1.6c0.2-0.7,0.5-1.5,0.8-2.4c0.3-0.9,0.7-1.8,1.1-2.7c0.4-0.9,0.9-1.8,1.4-2.7
					c0.5-0.9,1-1.7,1.6-2.4c0.6-0.7,1.2-1.3,1.9-1.7s1.4-0.7,2.1-0.7c1.2,0,2,0.3,2.5,1c0.5,0.7,0.7,1.5,0.7,2.6c0,0.3,0,0.6,0,0.9
					c0,0.3-0.1,0.6-0.1,0.9c-0.1,1.1-0.2,2.3-0.2,3.5c-0.1,1.2-0.1,2.4-0.1,3.5v0.6c0,1.5,0.1,2.9,0.2,4.2c0.1,1.3,0.4,2.7,0.8,4.2
					l0.3,0.9c0.1,0.3,0.2,0.6,0.3,1c0.1,0.4,0.2,0.7,0.3,1c0.1,0.3,0.2,0.7,0.2,1c0.1,0.3,0.1,0.5,0.1,0.7c0,0.4-0.2,0.7-0.5,0.9
					c-0.3,0.1-0.6,0.2-1,0.2c-0.2,0-0.5,0-0.7,0c-0.3,0-0.5,0-0.8-0.1s-0.5-0.1-0.8-0.2c-0.2-0.1-0.4-0.2-0.6-0.4v0
					c-0.2-0.2-0.3-0.4-0.4-0.7c-0.1-0.3-0.1-0.6-0.2-0.8l-0.1-0.3c-0.3-1.1-0.5-2.2-0.7-3.1c-0.2-0.9-0.4-1.8-0.5-2.7
					c-0.1-0.9-0.2-1.9-0.3-2.8c-0.1-1-0.1-2.1-0.1-3.4c0-1.1,0-2.2,0.1-3.3c0.1-1.1,0.2-2.2,0.3-3.3c0-0.1,0-0.2,0-0.4
					c0-0.1,0-0.3,0-0.4c-0.8,1.2-1.5,2.6-2.1,4.1c-0.6,1.5-1.1,3-1.6,4.6c-0.5,1.6-0.9,3.1-1.2,4.7c-0.3,1.6-0.7,3.1-0.9,4.5
					c0,0,0,0.1,0.1,0.4c0.1,0.2,0.2,0.5,0.3,0.8c0.1,0.3,0.2,0.6,0.3,0.8c0.1,0.3,0.1,0.4,0.1,0.5c0,0.5-0.2,0.8-0.5,0.9
					c-0.3,0.1-0.6,0.2-1,0.2c-0.3,0-0.5,0-0.8,0c-0.3,0-0.6-0.1-0.9-0.2c-0.3-0.1-0.6-0.2-0.8-0.3c-0.2-0.1-0.4-0.3-0.6-0.6
					c-0.1-0.2-0.3-0.7-0.4-1.5c-0.2-0.8-0.3-1.7-0.5-2.8s-0.4-2.2-0.5-3.4c-0.2-1.2-0.3-2.4-0.5-3.5c-0.1-1.1-0.3-2.1-0.3-2.9
					c-0.1-0.8-0.1-1.4-0.1-1.7v-0.5c-0.7,1.5-1.2,3-1.7,4.7c-0.4,1.7-0.8,3.3-1,4.9l-0.1,0.6c0,0.2-0.1,0.3-0.1,0.5
					c0,0.2,0,0.3,0,0.5c0,0.2,0,0.5,0.1,0.9c0.1,0.3,0.1,0.7,0.2,1.1c0.1,0.5,0.2,1.1,0.3,1.7
					C284.4,2751.5,284.5,2752.1,284.5,2752.6z"/>
				<path class="st1" d="M320.8,2739.8c0,1.8-0.2,3.7-0.5,5.5c-0.3,1.8-0.9,3.6-1.9,5.2c-0.3,0.5-0.6,1-1,1.4s-0.8,0.9-1.3,1.2
					s-1,0.7-1.5,0.9c-0.5,0.2-1.1,0.3-1.7,0.3c-0.9,0-1.7-0.2-2.4-0.7c-0.7-0.4-1.3-1-1.8-1.7c-0.5-0.7-0.9-1.5-1.2-2.4
					c-0.3-0.9-0.6-1.8-0.8-2.8s-0.3-1.9-0.4-2.7s-0.1-1.7-0.1-2.3c0-0.8,0-1.6,0.1-2.5c0.1-0.9,0.2-1.8,0.3-2.8
					c0.2-1,0.4-1.9,0.6-2.8c0.3-0.9,0.6-1.8,1-2.6c0.4-0.8,0.9-1.5,1.5-2.2s1.3-1.2,2.1-1.5v0c0.7-0.4,1.4-0.5,2-0.5
					c0.4,0,0.8,0.1,1,0.3s0.3,0.5,0.3,0.9c1.2,0.2,2.1,0.8,2.8,1.7c0.7,0.9,1.3,2,1.7,3.2c0.4,1.2,0.7,2.4,0.8,3.7
					C320.7,2737.7,320.8,2738.8,320.8,2739.8z M313.6,2731.8c-0.4,0-0.7-0.1-1-0.4c-0.4,0.6-0.7,1.3-1,2.1c-0.3,0.8-0.5,1.6-0.7,2.4
					c-0.2,0.8-0.3,1.7-0.3,2.5c-0.1,0.8-0.1,1.6-0.1,2.4c0,0.6,0,1.4,0.1,2.4s0.2,1.9,0.4,2.9c0.2,1,0.4,1.9,0.8,2.7
					c0.3,0.8,0.8,1.5,1.3,1.9c0.7-0.4,1.2-1,1.6-1.8c0.4-0.8,0.8-1.8,1-2.7c0.3-1,0.4-2,0.5-3c0.1-1,0.1-1.9,0.1-2.6
					c0-0.5,0-1.2-0.1-2.1c-0.1-0.8-0.2-1.7-0.3-2.6c-0.1-0.9-0.4-1.7-0.6-2.5c-0.3-0.8-0.6-1.3-1-1.7
					C314.1,2731.8,313.9,2731.8,313.6,2731.8z M312.2,2723.4c0-0.2,0.1-0.4,0.3-0.7c0.2-0.3,0.4-0.5,0.6-0.7
					c0.2-0.2,0.5-0.4,0.7-0.7s0.5-0.4,0.6-0.5l3.1-2.9c0.3-0.2,0.5-0.4,0.8-0.7c0.3-0.2,0.6-0.4,0.9-0.4c0.2,0,0.4,0.1,0.7,0.2
					c0.3,0.2,0.5,0.3,0.7,0.6c0.2,0.2,0.4,0.5,0.6,0.7c0.1,0.3,0.2,0.5,0.2,0.7c0,0,0,0.1,0,0.1c0,0,0,0.1-0.1,0.1
					c-0.1,0.3-0.2,0.5-0.4,0.7s-0.4,0.4-0.6,0.5c-0.7,0.5-1.2,0.9-1.5,1.2c-0.3,0.3-0.7,0.5-1,0.7c-0.3,0.2-0.6,0.5-1,0.7
					c-0.4,0.3-0.9,0.6-1.5,1.1c-0.2,0.2-0.5,0.3-0.7,0.4c-0.2,0.1-0.5,0.2-0.7,0.2c-0.2,0-0.4,0-0.6-0.1c-0.2-0.1-0.4-0.2-0.6-0.3
					c-0.2-0.1-0.3-0.3-0.5-0.5S312.2,2723.6,312.2,2723.4z"/>
				<path class="st1" d="M327.1,2726.1c0,0.4-0.1,0.6-0.2,0.8c-0.2,0.2-0.4,0.2-0.9,0.2c-0.2,0-0.5,0-0.9-0.1
					c-0.4-0.1-0.8-0.1-1.2-0.2c-0.4-0.1-0.8-0.3-1.1-0.4c-0.3-0.2-0.5-0.4-0.5-0.7c0-0.1,0-0.3,0.1-0.7c0.1-0.4,0.1-0.8,0.2-1.3
					c0.1-0.4,0.2-0.8,0.3-1.2c0.1-0.4,0.1-0.6,0.2-0.6v0c0.1-0.2,0.2-0.3,0.4-0.3c0.1,0,0.3-0.1,0.4-0.1c0.2,0,0.4,0,0.7,0.1
					s0.6,0.1,0.9,0.2c0.3,0.1,0.6,0.2,0.8,0.4c0.3,0.1,0.4,0.3,0.5,0.5c0.1,0.2,0.1,0.4,0.1,0.7c0,0.3,0,0.5,0,0.8
					c0,0.1,0,0.2,0,0.3c0,0.1,0,0.2,0,0.3c0,0.1,0,0.2,0,0.3c0,0.1,0,0.2,0,0.3c0,0.1,0,0.2,0,0.3S327.1,2725.9,327.1,2726.1z
					 M328.3,2751.4c0,0.5-0.1,0.8-0.3,1c-0.2,0.2-0.6,0.3-1.1,0.3c-0.3,0-0.5,0-0.8-0.1c-0.3-0.1-0.6-0.2-0.9-0.3
					c-0.3-0.1-0.6-0.3-0.8-0.4c-0.3-0.2-0.4-0.4-0.6-0.6c-0.1-0.1-0.2-0.5-0.2-1.2c-0.1-0.7-0.1-1.5-0.1-2.4c0-1-0.1-2.1-0.1-3.3
					c0-1.2-0.1-2.4-0.1-3.6c0-1.2,0-2.4,0-3.6c0-1.2,0-2.2,0-3v-2.4c0-0.2,0-0.4,0-0.6c0-0.2,0.1-0.4,0.1-0.6
					c0.1-0.2,0.2-0.3,0.3-0.4c0.2-0.1,0.4-0.2,0.7-0.2c0.9,0,1.6,0.3,2,0.8c0.4,0.5,0.7,1.2,0.8,2.1c0.1,1.3,0.2,2.6,0.2,3.9
					s0.1,2.6,0.1,3.9c0,1.2,0.1,2.4,0.1,3.5c0,1.2,0.1,2.3,0.2,3.4c0,0.2,0,0.5,0.1,0.7c0,0.2,0.1,0.4,0.1,0.6
					c0,0.4,0.1,0.8,0.1,1.3C328.3,2750.5,328.3,2750.9,328.3,2751.4z"/>
			</g>
			<g id="Group_6685" transform="matrix(0.985, 0.174, -0.174, 0.985, -573.58, 2100.238)">
				<g id="Path_2759">
					<path class="st1" d="M989.8,460.9c-0.6-0.8-1.5-1.2-2.5-1.1c-0.7-0.1-1.3,0.2-1.8,0.6c-0.3,0.4-0.4,0.6-0.2,0.9
						c1.1,0.4,1.8,1.5,1.7,2.7c0,0.6-0.2,1.3-0.4,1.9c0,0,0,0,0-0.1c-0.2,0.4-0.4,0.8-0.7,1.2c-0.1,0.1-0.1,0.2-0.2,0.3
						c0.3,0.3,0.5,0.6,0.7,1l0,0c0.2,0,0.4,0,0.5,0.1h0.4c1.3-1.2,2.3-2.8,2.9-4.4C990.5,463,990.4,461.8,989.8,460.9z"/>
				</g>
			</g>
		</g>
	</g>
	<g id="Group_6158" transform="matrix(0.996, 0.087, -0.087, 0.996, -943.914, 2022.649)">
		<g id="Path_2745">
			<path class="st1" d="M1253.8,630.9c-4.1,0.1-8.2,0.2-12.4,0.3c-1.4,0-2.7,0.1-4.1,0.2l-8.8,0.5c-1.6,0.1-3.3,0.2-4.9,0.3
				c-0.5,0-1,0.1-1.4,0.1c-1.1,0.1-2.1,0.2-3.2,0.3l-14.6,1.1c-1.2,0.1-2.3,0.2-3.5,0.3l-8.6,0.8c-3.2,0.3-6.4,0.6-9.7,0.9
				l-15.6,1.6c-3,0.3-6,0.6-9,0.9l-15.6,1.8c-2.8,0.3-5.7,0.6-8.5,1c-5.4,0.7-10.7,1.4-16.1,2.1c-2.9,0.4-5.7,0.7-8.6,1.2l-16,2.6
				l-3.5,0.6c-2.3,0.4-4.6,0.9-6.9,1.3l-0.4,0.1c-0.3,0.1-0.5,0.3-0.7,0.5c-0.6,0.7-0.5,1.7,0.2,2.3c0.3,0.3,0.8,0.4,1.2,0.4
				c2.8-0.5,5.5-1.1,8.3-1.5l7.7-1.3c2.8-0.5,5.6-0.9,8.4-1.4c1.1-0.2,2.3-0.4,3.4-0.5c4.4-0.6,8.8-1.2,13.1-1.7l8.2-1.1
				c1.1-0.1,2.3-0.3,3.4-0.4c4.3-0.5,8.7-1,13-1.5l7.9-0.9c0.9-0.1,1.8-0.2,2.7-0.3c4.7-0.5,9.4-0.9,14.1-1.4l7.9-0.8
				c0.9-0.1,1.9-0.2,2.8-0.3l14.6-1.3c3-0.3,6.1-0.5,9.1-0.8l15.5-1.2c1-0.1,2-0.1,3.1-0.2l8.6-0.4l6.4-0.3c1.5-0.1,3-0.1,4.6-0.1
				c4.5-0.1,8.9-0.2,13.4-0.3c1.1,0,2.3,0,3.4,0c1.2,0,2.4,0,3.7,0c0.2,0,0.4,0,0.6,0.1c0.5,0.1,1,0,1.3-0.3c0.8-0.6,1-1.7,0.5-2.5
				c-0.3-0.4-0.7-0.6-1.1-0.7c-0.8-0.1-1.7-0.2-2.5-0.2l-1.7,0c-1.1,0-2.2,0-3.3,0C1258,630.8,1255.9,630.8,1253.8,630.9z"/>
		</g>
		<g id="Path_2746">
			<path class="st1" d="M1271.6,638.1c-3.6-0.1-7.2-0.2-10.7-0.3c-1.2,0-2.4,0-3.5,0l-7.7,0c-1.4,0-2.9,0-4.3,0c-0.4,0-0.8,0-1.2,0
				c-0.9,0-1.9,0.1-2.8,0.1l-12.7,0.3c-1,0-2,0.1-3,0.1l-7.5,0.3c-2.8,0.1-5.6,0.2-8.4,0.3l-13.6,0.7c-2.6,0.1-5.3,0.2-7.9,0.4
				c-4.5,0.3-9.1,0.6-13.6,0.9c-2.5,0.2-4.9,0.3-7.4,0.5c-4.7,0.4-9.4,0.8-14,1.1c-2.5,0.2-5,0.4-7.5,0.6l-14,1.5l-3,0.3
				c-2,0.2-4,0.5-6,0.8l-0.4,0.1c-0.8,0.2-1.2,1-0.9,1.8c0.1,0.2,0.2,0.4,0.4,0.6c0.3,0.3,0.6,0.4,1,0.4c2.4-0.3,4.8-0.7,7.3-0.9
				l6.7-0.7l7.4-0.8c1-0.1,2-0.2,3-0.3c3.8-0.3,7.7-0.6,11.5-0.9l7.2-0.6c1-0.1,2-0.2,3-0.2c3.8-0.2,7.6-0.5,11.4-0.7l6.9-0.4
				c0.8,0,1.5-0.1,2.3-0.1c4.1-0.2,8.2-0.4,12.3-0.6l6.9-0.3c0.8,0,1.6-0.1,2.4-0.1l12.7-0.4c2.6-0.1,5.3-0.2,7.9-0.2l13.5-0.3
				c0.9,0,1.8,0,2.7,0l7.4,0l5.6,0c1.3,0,2.6,0.1,4,0.1c3.9,0.1,7.8,0.2,11.7,0.4c1,0,2,0.1,3,0.1c1.1,0.1,2.1,0.1,3.2,0.2
				c0.2,0,0.3,0,0.5,0.1c0.4,0.1,0.8,0,1.2-0.2c0.7-0.4,0.9-1.4,0.5-2.1c-0.2-0.3-0.5-0.6-0.9-0.7c-0.7-0.2-1.4-0.3-2.2-0.3
				l-1.5-0.1c-1-0.1-1.9-0.1-2.9-0.1C1275.2,638.2,1273.4,638.1,1271.6,638.1z"/>
		</g>
	</g>
	<g class="st0">
		<path class="st1" d="M240.3,2726.2l-3.7,8.5h-2.1l-3.7-8.5h2.1l2.7,6.3l2.7-6.3H240.3z"/>
		<path class="st1" d="M249.8,2726.2v8.5h-1.9v-1.1c-0.3,0.4-0.7,0.7-1.2,0.9c-0.5,0.2-1,0.3-1.6,0.3c-1.1,0-2-0.3-2.7-1
			c-0.7-0.6-1-1.6-1-2.8v-4.9h2v4.6c0,0.8,0.2,1.3,0.5,1.7s0.8,0.6,1.5,0.6c0.7,0,1.3-0.2,1.7-0.7c0.4-0.4,0.6-1.1,0.6-1.9v-4.3
			H249.8z M242.5,2722.9h2.4l2.2,2.2h-1.7L242.5,2722.9z M248.5,2726.2h0.3c0.3,0,0.6-0.1,0.7-0.3s0.3-0.4,0.3-0.7
			c0-0.4-0.1-0.7-0.3-1l1.2-0.4c0.3,0.4,0.5,0.9,0.5,1.5c0,0.7-0.2,1.3-0.6,1.7c-0.4,0.4-1,0.6-1.8,0.6h-0.3V2726.2z"/>
		<path class="st1" d="M258.6,2727c0.7,0.6,1,1.5,1,2.7v5h-1.9v-1c-0.2,0.4-0.6,0.7-1,0.9c-0.5,0.2-1,0.3-1.6,0.3s-1.2-0.1-1.7-0.3
			c-0.5-0.2-0.9-0.5-1.1-0.9s-0.4-0.8-0.4-1.3c0-0.8,0.3-1.4,0.9-1.8s1.5-0.7,2.7-0.7h2.2v-0.1c0-0.6-0.2-1.1-0.5-1.4
			s-0.9-0.5-1.6-0.5c-0.5,0-1,0.1-1.4,0.2s-0.9,0.4-1.2,0.6l-0.8-1.5c0.4-0.3,1-0.6,1.6-0.8c0.6-0.2,1.3-0.3,2-0.3
			C257,2726.1,257.9,2726.4,258.6,2727z M256.8,2733.1c0.4-0.2,0.7-0.6,0.8-1v-1h-2.1c-1.2,0-1.7,0.4-1.7,1.1c0,0.4,0.1,0.7,0.4,0.9
			c0.3,0.2,0.7,0.3,1.2,0.3C255.9,2733.4,256.4,2733.3,256.8,2733.1z"/>
	</g>
	<g class="st0">
		<path class="st1" d="M232.3,2740.9h2v11.9h-2V2740.9z"/>
		<path class="st1" d="M244.9,2749.2h-6.7c0.1,0.6,0.4,1.1,0.9,1.5c0.5,0.4,1.1,0.6,1.8,0.6c0.9,0,1.7-0.3,2.3-0.9l1.1,1.2
			c-0.4,0.5-0.9,0.8-1.5,1c-0.6,0.2-1.2,0.4-2,0.4c-0.9,0-1.8-0.2-2.5-0.6c-0.7-0.4-1.3-0.9-1.7-1.6c-0.4-0.7-0.6-1.4-0.6-2.3
			c0-0.8,0.2-1.6,0.6-2.2c0.4-0.7,0.9-1.2,1.6-1.6c0.7-0.4,1.4-0.6,2.3-0.6c0.8,0,1.6,0.2,2.2,0.6s1.2,0.9,1.5,1.6
			c0.4,0.7,0.6,1.4,0.6,2.3C245,2748.7,245,2748.9,244.9,2749.2z M242,2743.1l-1.4-1.2l-1.4,1.2h-1.6l2.1-2.2h1.8l2.1,2.2H242z
			 M239,2746.3c-0.4,0.4-0.7,0.9-0.8,1.5h4.8c-0.1-0.6-0.3-1.1-0.8-1.5s-1-0.6-1.6-0.6C240,2745.7,239.5,2745.9,239,2746.3z"/>
		<path class="st1" d="M254.3,2745.1c0.7,0.6,1,1.6,1,2.8v4.9h-2v-4.6c0-0.7-0.2-1.3-0.5-1.7c-0.4-0.4-0.9-0.6-1.5-0.6
			c-0.7,0-1.3,0.2-1.7,0.7c-0.4,0.4-0.6,1.1-0.6,1.9v4.3h-2v-8.5h1.9v1.1c0.3-0.4,0.7-0.7,1.2-0.9c0.5-0.2,1.1-0.3,1.7-0.3
			C252.8,2744.1,253.7,2744.5,254.3,2745.1z"/>
		<path class="st1" d="M265.8,2749.1l-1.5,1.4v2.3h-2v-11.9h2v7.2l4.1-3.8h2.4l-3.6,3.6l3.9,5h-2.4L265.8,2749.1z"/>
		<path class="st1" d="M280.1,2749.2h-6.7c0.1,0.6,0.4,1.1,0.9,1.5c0.5,0.4,1.1,0.6,1.8,0.6c0.9,0,1.7-0.3,2.3-0.9l1.1,1.2
			c-0.4,0.5-0.9,0.8-1.5,1c-0.6,0.2-1.2,0.4-2,0.4c-0.9,0-1.8-0.2-2.5-0.6c-0.7-0.4-1.3-0.9-1.7-1.6c-0.4-0.7-0.6-1.4-0.6-2.3
			c0-0.8,0.2-1.6,0.6-2.2c0.4-0.7,0.9-1.2,1.6-1.6c0.7-0.4,1.4-0.6,2.3-0.6c0.8,0,1.6,0.2,2.2,0.6s1.2,0.9,1.5,1.6
			c0.4,0.7,0.6,1.4,0.6,2.3C280.1,2748.7,280.1,2748.9,280.1,2749.2z M277.2,2743.1l-1.4-1.2l-1.4,1.2h-1.6l2.1-2.2h1.8l2.1,2.2
			H277.2z M274.2,2746.3c-0.4,0.4-0.7,0.9-0.8,1.5h4.8c-0.1-0.6-0.3-1.1-0.8-1.5s-1-0.6-1.6-0.6
			C275.2,2745.7,274.6,2745.9,274.2,2746.3z M275.1,2755.8c-0.2-0.2-0.3-0.4-0.3-0.7c0-0.3,0.1-0.5,0.3-0.7c0.2-0.2,0.4-0.3,0.7-0.3
			s0.5,0.1,0.7,0.3c0.2,0.2,0.3,0.4,0.3,0.7c0,0.3-0.1,0.5-0.3,0.7c-0.2,0.2-0.4,0.3-0.7,0.3S275.2,2755.9,275.1,2755.8z"/>
	</g>
</g>
</svg>
